<?xml version="1.0" encoding="utf-8"?>
<!-- Generator: Adobe Illustrator 16.0.0, SVG Export Plug-In . SVG Version: 6.00 Build 0)  -->
<!DOCTYPE svg PUBLIC "-//W3C//DTD SVG 1.1//EN" "http://www.w3.org/Graphics/SVG/1.1/DTD/svg11.dtd">
<svg version="1.1" id="Layer_1" xmlns="http://www.w3.org/2000/svg" xmlns:xlink="http://www.w3.org/1999/xlink" x="0px" y="0px"
	 width="500px" height="500px" viewBox="0 0 500 500" enable-background="new 0 0 500 500" xml:space="preserve">
<g>
	<path d="M421.149,158.177c-15.587-26.007-36.185-44.581-61.781-55.726c-25.604-11.146-62.96-16.719-112.057-16.719H113.573
		c11.809,2.456,34.161,12.519,40.46,19.626c4.52,5.172,15.042,18.013,15.042,38.522v212.238c0,18.575-1.781,30.529-5.33,35.859
		c-5.816,8.883-36.942,19.47-50.172,22.289h146.822c63.801,0,111.286-17.117,142.458-51.364
		c27.784-30.686,41.675-68.889,41.675-114.599C444.527,214.227,436.734,184.184,421.149,158.177z M352.218,357.814
		c-24.713,26.329-55.81,39.494-93.274,39.494c-13.897,0-41.518-1.436-62.028-5.958V112c18.571-4.685,45.55-7.854,60.086-7.854
		c38.766,0,70.503,13.083,95.216,39.251c24.712,26.166,37.067,61.941,37.067,107.33C389.285,295.792,376.93,331.491,352.218,357.814
		z"/>
	<path d="M208.212,134.995c6.157,3.759,28.036,17.188,28.036,22.46l-10.964,23.361l-41.329,78.526l-41.33-78.526l-10.963-23.361
		c0-5.271,22.649-19.117,28.033-22.46h-38.081H55.473c8.605,4.921,25.125,16.23,27.941,19.226
		c2.813,2.996,8.179,10.484,16.083,22.46l66.846,102.071v57.683c0,13.652-1.317,22.399-3.95,26.234
		c-4.315,6.229-19.44,13.402-30.55,15.991h52.112h52.108c-11.448-2.732-26.231-9.762-30.546-15.991
		c-2.631-3.835-3.953-12.582-3.953-26.234v-57.683l66.848-102.066c7.907-11.98,13.271-19.467,16.083-22.462
		c2.818-2.998,19.928-14.686,27.941-19.229H208.212z"/>
</g>
</svg>
